<svg width="90" height="61" viewBox="0 0 90 61" fill="none" xmlns="http://www.w3.org/2000/svg">
<path d="M68.9465 6.23456V16.3053H68.6595C68.6595 19.8541 59.186 22.6355 47.8943 22.6355C43.5881 22.7314 39.1862 22.2519 34.9757 21.1968V21.4845C32.8704 19.6623 30.4781 18.3194 27.8944 17.4562V17.2643L27.6074 6.61806C28.373 9.87902 37.1767 12.4686 47.9901 12.4686C58.8034 12.4686 68.6597 9.68718 68.6597 6.23438L68.9465 6.23456Z" fill="#DEB842"/>
<path d="M48.1802 0C59.5675 0 69.0412 2.87727 69.0412 6.33026C69.0412 9.78324 59.4719 12.5645 48.1802 12.5645C36.8884 12.5645 28.4673 9.9749 27.7019 6.71394V6.33026C27.6061 2.87727 36.7928 0 48.1802 0Z" fill="#FFD44B"/>
<path d="M49.9046 45.0784V53.1351H47.9908C43.7802 53.2309 39.5697 52.7514 35.455 51.7924L35.168 51.5045C37.8474 49.1067 39.7613 46.0375 40.9096 42.6807H41.388C43.3974 42.8725 45.5985 42.9683 47.7994 42.9683H49.8088L49.9046 45.0784Z" fill="#C0A54F"/>
<path d="M48.085 32.4192L49.0419 32.8987C48.9463 33.0906 48.9463 33.2824 48.9463 33.4742C48.9463 33.7619 49.0419 34.0498 49.1377 34.3374V43.3531H48.085C45.6928 43.3531 43.3005 43.2573 41.1952 43.0655H40.7168C41.3866 40.9554 41.6736 38.7495 41.6736 36.5435C41.6736 35.1048 41.4822 33.6663 41.2908 32.2275H41.7692C43.8747 32.4192 45.98 32.4192 48.085 32.4192Z" fill="#DEB842"/>
<path d="M34.9747 21.1962C39.1852 22.2513 43.587 22.7308 47.8933 22.6349C59.1851 22.6349 68.6586 19.8535 68.6586 16.3047H68.9456V27.6223C58.4195 27.6223 49.807 30.1161 48.7544 33.281L47.8931 32.8015C45.8836 32.8015 43.9698 32.7057 41.9601 32.5138H41.4817C40.5249 28.1978 38.2282 24.2653 34.8789 21.3881L34.9747 21.1962Z" fill="#C0A54F"/>
<path d="M89.9995 44.0234V54.1902C89.9995 57.643 80.7173 60.5204 69.4255 60.5204C58.1338 60.5204 49.1387 57.739 49.1387 54.2862V45.0785C50.6697 48.0518 58.995 50.3537 69.0427 50.3537C79.0904 50.3537 89.7124 47.4764 89.7124 44.0234H89.9995Z" fill="#C0A54F"/>
<path d="M89.9974 34.0479V44.0228H89.7104C89.7104 47.4756 80.3325 50.353 69.0408 50.353C57.749 50.353 50.6678 48.0511 48.9453 45.0778V34.6234C50.1893 37.7885 58.8016 40.1863 69.1365 40.1863C79.4715 40.1863 89.5192 37.4048 89.8062 34.0479H89.9974Z" fill="#DEB842"/>
<path d="M48.6602 34.624C48.5645 34.3363 48.4688 34.1445 48.4688 33.8566C48.4688 33.6648 48.4688 33.4729 48.5644 33.2811C49.617 30.116 58.3251 27.5264 68.947 27.5264H69.0426C80.43 27.5264 89.9993 30.3078 89.9993 33.8566V34.0485C89.7123 37.4054 80.2386 40.2827 69.0426 40.2827C57.8466 40.2827 49.9042 37.7891 48.6602 34.624Z" fill="#FFD44B"/>
<path d="M41.9613 32.514C42.1528 33.8567 42.3442 35.2954 42.3442 36.6382C42.3442 38.7482 42.0571 40.8583 41.4829 42.7766C40.3347 46.2294 38.325 49.3945 35.6457 51.7923C31.9138 55.2451 27.0335 57.1633 21.9617 57.1633C10.6698 57.9307 0.813439 49.3945 0.0478216 37.9811C-0.717796 26.6634 7.79887 16.7846 19.1864 16.0172C20.1433 15.9214 21.1003 15.9214 22.0571 16.0172C24.0666 16.0172 26.1719 16.3049 28.0857 16.8804C30.7652 17.7436 33.2531 19.1823 35.3584 21.0045C38.612 24.0738 41.0043 28.102 41.9613 32.514Z" fill="#FFD44B"/>
<path d="M21.1005 46.9002C26.7554 46.9002 31.3396 42.3054 31.3396 36.6376C31.3396 30.9697 26.7554 26.375 21.1005 26.375C15.4455 26.375 10.8613 30.9697 10.8613 36.6376C10.8613 42.3054 15.4455 46.9002 21.1005 46.9002Z" fill="#DEB842"/>
</svg>
