<svg xmlns="http://www.w3.org/2000/svg" width="52" height="40.93" viewBox="0 0 52 40.93"><title>add-photo</title><path d="M26,10.47a12,12,0,1,0,12,12A12,12,0,0,0,26,10.47Zm6,13.25H27.1v5.05a1.25,1.25,0,1,1-2.5,0V23.72H19.52a1.25,1.25,0,1,1,0-2.5H24.6v-5a1.25,1.25,0,1,1,2.5,0v5H32a1.25,1.25,0,0,1,0,2.5Z" fill="#c0a54f"/><path d="M50.27,6.38a5.58,5.58,0,0,0-4.1-1.73H38v-.1a4.42,4.42,0,0,0-1.33-3.21A4.54,4.54,0,0,0,33.41,0H18.59a4.57,4.57,0,0,0-3.27,1.34A4.51,4.51,0,0,0,14,4.55v.1H5.83a5.58,5.58,0,0,0-4.1,1.73A5.87,5.87,0,0,0,0,10.48V35.1a5.58,5.58,0,0,0,1.73,4.1,5.87,5.87,0,0,0,4.1,1.73H46.17a5.58,5.58,0,0,0,4.1-1.73A5.87,5.87,0,0,0,52,35.1V10.48A5.58,5.58,0,0,0,50.27,6.38ZM49.43,35.1h0a3.21,3.21,0,0,1-3.21,3.21H5.83A3.21,3.21,0,0,1,2.62,35.1V10.48a3.17,3.17,0,0,1,.94-2.27,3.13,3.13,0,0,1,2.27-.94h9.54a1.34,1.34,0,0,0,1.34-1.34V4.5a1.86,1.86,0,0,1,1.93-1.93H33.41A1.86,1.86,0,0,1,35.34,4.5V5.93a1.34,1.34,0,0,0,1.34,1.34h9.54a3.13,3.13,0,0,1,2.27.94,3.17,3.17,0,0,1,.94,2.27Z" fill="#e5e5e5"/><path d="M46,13a2.42,2.42,0,1,1-2.42-2.42A2.42,2.42,0,0,1,46,13Z" fill="#e5e5e5"/></svg>