<svg xmlns="http://www.w3.org/2000/svg" width="78.42" height="88" viewBox="0 0 78.42 88"><title>ic-add</title><path d="M39.21,42.2a1.87,1.87,0,1,0,1.86,1.87A1.87,1.87,0,0,0,39.21,42.2Z" fill="#fff"/><path d="M39.21,0a1.87,1.87,0,0,0-1.87,1.87V9.34a1.87,1.87,0,0,0,3.73,0V1.87A1.87,1.87,0,0,0,39.21,0Z" fill="#fff"/><path d="M25.89,12.41,22.15,5.94A1.86,1.86,0,1,0,18.92,7.8l3.73,6.47a1.88,1.88,0,0,0,1.62.94A1.83,1.83,0,0,0,25.2,15,1.87,1.87,0,0,0,25.89,12.41Z" fill="#fff"/><path d="M58.81,5.25a1.87,1.87,0,0,0-2.55.69l-3.73,6.47a1.86,1.86,0,1,0,3.23,1.86L59.5,7.8A1.88,1.88,0,0,0,58.81,5.25Z" fill="#fff"/><path d="M78.41,44v-.12a.13.13,0,0,1,0-.06.17.17,0,0,1,0-.07.11.11,0,0,1,0-.05s0,0,0-.06,0,0,0-.07,0,0,0-.06,0,0,0,0l0-.07,0-.06s0,0,0,0l0-.08,0-.06h0L67,23.36s0,0,0,0l-.1-.15,0,0L66.69,23l-.17-.14s0,0,0,0l-.15-.09,0,0-.2-.1h0l-.21-.08h-.06l-.16,0h-.06l-.23,0H13.07l-.23,0h-.06l-.17,0-.06,0a.64.64,0,0,0-.18.06h0l-.19.1-.05,0-.14.09,0,0a.86.86,0,0,0-.14.13l0,0a.8.8,0,0,0-.15.17l0,0c0,.06-.07.11-.1.16l0,0L.26,43.11l0,0h0l0,.06,0,.08s0,0,0,0l0,.06a.24.24,0,0,0,0,.08l0,0s0,0,0,.07a.19.19,0,0,0,0,.07.09.09,0,0,0,0,0,.07.07,0,0,0,0,.05l0,.08v0a.09.09,0,0,0,0,.05v.32s0,0,0,0,0,.05,0,.07a.13.13,0,0,0,0,.06s0,0,0,0a.14.14,0,0,0,0,.07s0,0,0,.05,0,0,0,.06a.14.14,0,0,0,0,.06l0,0,0,.06,0,.06,0,0s0,0,0,0l0,.05,0,.06,0,0,0,0,0,.06,0,0,0,0L38.05,87.38l.14.15,0,0,.16.13.06,0,.17.1,0,0,.22.09h.06l.18,0,.07,0h.25a1,1,0,0,0,.25,0h.07l.19,0h0l.23-.09,0,0,.17-.09.06,0,.17-.13,0,0,.15-.15,5.1-5.78,1-1.14,1-1.15a14.46,14.46,0,0,1-2-3.36l-.4.45.3-.71a14.66,14.66,0,0,1-1-7.34l-1.51,3.6L42.3,74.46l-2.88,6.88L24.33,45.94h7.41a1.87,1.87,0,0,0,0-3.74H25.65L39.21,27.07,52.92,42.2H46.68a1.87,1.87,0,0,0,0,3.74h7.58L50.6,54.68l-1.06,2.53L48,60.81A14.88,14.88,0,0,1,54,56.34l.79-1.89.74-1.75,2.83-6.76h14.1L65.9,53.32l-1.07,1.22-1.09,1.23a14.3,14.3,0,0,1,3.6,1.57l1-1.15,1-1.13L78,45.31l0,0s0,0,0,0l0-.06,0,0,0,0,0-.06,0-.05,0,0a.14.14,0,0,0,0-.06l0,0a.14.14,0,0,0,0-.06.08.08,0,0,0,0,0l0-.06s0,0,0-.06l0-.05s0,0,0-.07a.09.09,0,0,0,0,0,.13.13,0,0,0,0-.06.2.2,0,0,0,0-.07.09.09,0,0,0,0,0v-.07s0,0,0-.07v0A.15.15,0,0,0,78.41,44ZM12.83,28.49,18.68,42.2H5.06ZM33.27,76.43,6,45.94H20.27ZM22.06,40.61,15.89,26.15H35Zm34.44,0L43.42,26.15H62.56Zm3.37,1.61,5.74-13.69L73.35,42.2Z" fill="#fff"/><path d="M69.35,55.06a17.71,17.71,0,0,0-3.45-1.74,18,18,0,0,0-6.24-1.12,17.46,17.46,0,0,0-4.18.5,17.09,17.09,0,0,0-4.88,2,17.89,17.89,0,1,0,18.75.38ZM59.66,85A14.85,14.85,0,0,1,48,79.3a14.46,14.46,0,0,1-2-3.36,2.77,2.77,0,0,1-.1-.26,14.66,14.66,0,0,1-1-7.34A14.89,14.89,0,0,1,63.74,55.77a14.3,14.3,0,0,1,3.6,1.57A14.89,14.89,0,0,1,59.66,85Z" fill="#fff"/><path d="M61.16,61.15v17.9a1.5,1.5,0,1,1-3,0V61.15a1.49,1.49,0,0,1,1.49-1.49,1.52,1.52,0,0,1,1.5,1.49Z" fill="#fff"/><path d="M70.11,70.1a1.5,1.5,0,0,1-1.5,1.5H50.71a1.48,1.48,0,0,1-.75-.21,1.49,1.49,0,0,1,.75-2.78h17.9A1.5,1.5,0,0,1,70.11,70.1Z" fill="#fff"/></svg>