<!-- Generated by IcoMoon.io -->
<svg version="1.1" xmlns="http://www.w3.org/2000/svg" width="32" height="32" viewBox="0 0 32 32">
<title>close</title>
<path d="M3.521 32c-0.016 0-0.034 0-0.053 0-0.949 0-1.808-0.388-2.426-1.014l-0-0c-0.637-0.633-1.032-1.51-1.032-2.479s0.395-1.846 1.032-2.479l0-0 10-10.056-9.972-9.972c-0.552-0.619-0.889-1.44-0.889-2.339 0-1.945 1.576-3.521 3.521-3.521 0.907 0 1.733 0.343 2.357 0.906l-0.003-0.003 9.972 9.944 9.69-9.69c0.644-0.626 1.523-1.012 2.493-1.012s1.849 0.386 2.494 1.012l-0.001-0.001c0.626 0.644 1.012 1.523 1.012 2.493s-0.386 1.849-1.012 2.494l0.001-0.001-9.69 9.69 9.972 9.944c0.654 0.647 1.058 1.544 1.058 2.535 0 1.969-1.596 3.565-3.565 3.565-0.978 0-1.863-0.393-2.507-1.031l0 0-9.944-10.028-10.028 10.028c-0.618 0.626-1.477 1.014-2.426 1.014-0.019 0-0.037-0-0.055-0l0.003 0z" fill="#fff"></path>
</svg>
