<svg xmlns="http://www.w3.org/2000/svg" width="49.67" height="37.82" viewBox="0 0 49.67 37.82"><title>ic-view</title><path d="M3.69,24.68l-.08.08.08.09a42.41,42.41,0,0,0,5.59,4.72,36.14,36.14,0,0,0,4.65,2.78l.16-.18a13,13,0,0,1,0-14.81l-.16-.18A40.53,40.53,0,0,0,3.69,24.68Zm36.7,4.89h0A42.41,42.41,0,0,0,46,24.85l.08-.09L46,24.68A42.41,42.41,0,0,0,40.39,20a36.14,36.14,0,0,0-4.65-2.78l-.16.18a13,13,0,0,1,0,14.81l.16.18A36.14,36.14,0,0,0,40.39,29.57ZM24.83,11.71c5.57,0,11.5,2.11,17.16,6.1a41.07,41.07,0,0,1,6.92,6.08l.76.87-.76.88A41.07,41.07,0,0,1,42,31.72c-5.66,4-11.59,6.1-17.16,6.1s-11.49-2.11-17.15-6.1A41.07,41.07,0,0,1,.76,25.64L0,24.76l.76-.87a41.07,41.07,0,0,1,6.92-6.08C13.34,13.82,19.27,11.71,24.83,11.71Zm0,23.43A10.38,10.38,0,1,0,14.46,24.76,10.39,10.39,0,0,0,24.83,35.14Zm0-4.35a5.88,5.88,0,1,1,5.88-5.87A5.88,5.88,0,0,1,24.83,30.79Zm0-2.15a3.73,3.73,0,1,0-3.72-3.72A3.73,3.73,0,0,0,24.83,28.64ZM23.49,0h2.68V7.07H23.49ZM39.13,3.25,35.59,9.38,33.28,8l3.53-6.13ZM12.86,1.92,16.4,8,14.08,9.38,10.54,3.25Z" fill="#fff"/></svg>