<?xml version="1.0" encoding="UTF-8"?>
<!DOCTYPE svg PUBLIC "-//W3C//DTD SVG 1.1//EN" "http://www.w3.org/Graphics/SVG/1.1/DTD/svg11.dtd">
<!-- Creator: CorelDRAW 2017 -->
<svg xmlns="http://www.w3.org/2000/svg" xml:space="preserve" width="114.735mm" height="32.2592mm" version="1.1" style="shape-rendering:geometricPrecision; text-rendering:geometricPrecision; image-rendering:optimizeQuality; fill-rule:evenodd; clip-rule:evenodd"
viewBox="0 0 276.6 77.77"
 xmlns:xlink="http://www.w3.org/1999/xlink">
 <defs>
  <style type="text/css">
   <![CDATA[
    .fil3 {fill:#FEFEFE}
    .fil2 {fill:#FEFEFE;fill-rule:nonzero}
    .fil1 {fill:#877F77;fill-rule:nonzero}
    .fil0 {fill:#AD9D6A;fill-rule:nonzero}
   ]]>
  </style>
 </defs>
 <g id="Слой_x0020_1">
  <metadata id="CorelCorpID_0Corel-Layer"/>
  <g id="_2849232321280">
   <path class="fil0" d="M5.07 26.09l20.35 0 0 10.15 -15.28 0 0 15.69c0,4.31 1.77,8.23 4.61,11.08 2.85,2.85 6.77,4.61 11.08,4.61 4.31,0 8.23,-1.77 11.08,-4.61 2.85,-2.85 4.61,-6.77 4.61,-11.08l0 -2.34 0.04 0c-0,-0.03 -0,-0.06 -0,-0.09 0,-2.78 2.26,-5.04 5.04,-5.04 2.78,0 5.04,2.26 5.04,5.04 0,0.03 -0,0.06 -0,0.09l0.03 0 0 2.34c0,7.11 -2.91,13.57 -7.59,18.25 -4.68,4.68 -11.14,7.59 -18.25,7.59 -7.11,0 -13.57,-2.91 -18.25,-7.59 -4.68,-4.68 -7.59,-11.14 -7.59,-18.25l0 -25.84 5.07 0z"/>
   <path class="fil1" d="M31.25 49.61c0.01,-0.09 0.01,-0.18 0.01,-0.28l0 -0.11 0 -13.35 12.26 0c4.87,0 9.41,-2.04 12.63,-5.49 3.17,-3.32 5.02,-7.78 5.02,-12.34 0,-4.65 -1.78,-9.17 -4.91,-12.53 -3.22,-3.44 -7.6,-5.51 -12.55,-5.51l-21.98 0c-0.9,0 -1.47,0.45 -1.47,1.47l0 47.75 0 0.11c0,0.1 0,0.19 0.01,0.28 0.2,2.86 2.58,5.11 5.49,5.11 2.91,0 5.29,-2.26 5.49,-5.11zm0.01 -23.3l0 -16.71 10.22 0c2.46,0 4.49,0.83 6.12,2.44 1.51,1.55 2.34,3.7 2.34,5.97 0,2.38 -0.83,4.37 -2.34,5.88 -1.62,1.62 -3.66,2.42 -6.12,2.42l-10.22 0z"/>
   <path class="fil2" d="M95.07 53.12c0,0.99 0.04,1.71 0.12,2.13 0.07,0.41 0.19,0.74 0.37,0.99 0.17,0.26 0.43,0.46 0.75,0.63 0.33,0.16 0.83,0.31 1.51,0.43l0 1.5 -12.23 0 0 -1.5c0.57,-0.16 1.01,-0.32 1.33,-0.49 0.33,-0.18 0.57,-0.42 0.72,-0.73 0.16,-0.31 0.26,-0.71 0.31,-1.18 0.05,-0.48 0.07,-1.09 0.07,-1.81l0 -19.6c0,-0.71 -0.02,-1.31 -0.06,-1.79 -0.03,-0.49 -0.13,-0.88 -0.29,-1.19 -0.16,-0.3 -0.4,-0.54 -0.72,-0.74 -0.33,-0.19 -0.78,-0.36 -1.36,-0.51l0 -1.5 13.2 0c3.84,0 6.71,0.68 8.62,2.06 1.91,1.37 2.86,3.48 2.86,6.33 0,2.02 -0.45,3.76 -1.34,5.25 -0.89,1.48 -2.19,2.61 -3.89,3.37 -1.7,0.76 -3.82,1.15 -6.36,1.15 -1.47,0 -2.68,-0.03 -3.61,-0.09l0 7.28zm0 -9.84l1.95 0c1.51,0 2.71,-0.22 3.61,-0.64 0.89,-0.43 1.55,-1.12 1.99,-2.06 0.43,-0.94 0.65,-2.2 0.65,-3.79 0,-1.57 -0.22,-2.83 -0.65,-3.76 -0.43,-0.93 -1.06,-1.59 -1.9,-1.99 -0.83,-0.4 -1.9,-0.59 -3.2,-0.59 -1.05,0 -1.88,0.02 -2.45,0.05l0 12.79zm31.02 15.52l-11.93 0 0 -1.5c0.57,-0.16 1.01,-0.32 1.33,-0.49 0.33,-0.18 0.57,-0.42 0.72,-0.73 0.16,-0.31 0.26,-0.71 0.31,-1.18 0.05,-0.48 0.07,-1.09 0.07,-1.81l0 -19.6c0,-0.71 -0.02,-1.31 -0.06,-1.79 -0.03,-0.49 -0.13,-0.88 -0.29,-1.19 -0.16,-0.3 -0.4,-0.54 -0.72,-0.74 -0.33,-0.19 -0.78,-0.36 -1.36,-0.51l0 -1.5 13.25 0c1.79,0 3.31,0.12 4.56,0.37 1.25,0.26 2.34,0.64 3.28,1.15 0.79,0.43 1.46,0.96 2,1.61 0.54,0.64 0.96,1.4 1.26,2.25 0.3,0.85 0.45,1.85 0.45,2.99 0,1.48 -0.26,2.76 -0.78,3.82 -0.53,1.06 -1.23,1.95 -2.12,2.65 -0.88,0.7 -2.07,1.37 -3.55,1.99l0 0.22c1.12,0.49 2.05,1.13 2.78,1.95 0.74,0.81 1.4,1.84 1.99,3.08l1.43 3.09c0.64,1.38 1.27,2.41 1.9,3.1 0.63,0.69 1.37,1.11 2.24,1.26l0 1.5 -8.75 0c-0.88,-1.21 -1.88,-3.02 -2.98,-5.41l-1.78 -3.89c-0.53,-1.16 -0.99,-1.97 -1.36,-2.46 -0.38,-0.48 -0.78,-0.81 -1.17,-1 -0.4,-0.18 -1.02,-0.27 -1.85,-0.27l-1.32 0 0 7.32c0,1.13 0.05,1.93 0.16,2.38 0.11,0.46 0.32,0.82 0.62,1.09 0.3,0.27 0.86,0.51 1.68,0.73l0 1.5zm-2.45 -28.32l0 12.63 2.25 0c1.21,0 2.21,-0.16 3,-0.48 0.78,-0.33 1.41,-0.78 1.87,-1.37 0.47,-0.58 0.78,-1.27 0.95,-2.06 0.18,-0.79 0.26,-1.65 0.26,-2.59 0,-2.06 -0.48,-3.61 -1.45,-4.64 -0.97,-1.03 -2.41,-1.54 -4.32,-1.54 -1.3,0 -2.16,0.02 -2.57,0.05zm30.8 22.61c0,0.53 0.02,1.02 0.05,1.47 0.03,0.46 0.09,0.83 0.18,1.12 0.09,0.29 0.22,0.53 0.4,0.72 0.18,0.2 0.42,0.37 0.72,0.51 0.3,0.15 0.67,0.27 1.11,0.38l0 1.5 -11.93 0 0 -1.5c0.57,-0.16 1.01,-0.32 1.33,-0.49 0.33,-0.18 0.57,-0.42 0.72,-0.73 0.16,-0.31 0.26,-0.71 0.31,-1.18 0.05,-0.48 0.07,-1.09 0.07,-1.81l0 -19.62c0,-0.72 -0.02,-1.33 -0.06,-1.79 -0.03,-0.47 -0.13,-0.86 -0.29,-1.17 -0.16,-0.31 -0.4,-0.56 -0.72,-0.74 -0.33,-0.19 -0.78,-0.35 -1.36,-0.5l0 -1.5 11.93 0 0 1.5c-0.62,0.17 -1.08,0.35 -1.37,0.54 -0.29,0.19 -0.52,0.42 -0.67,0.7 -0.16,0.27 -0.26,0.63 -0.32,1.06 -0.06,0.44 -0.09,1.09 -0.09,1.93l0 19.6zm29.36 -24.61l0 6.59 -3.09 0c-0.36,-1.71 -0.94,-2.97 -1.73,-3.78 -0.78,-0.81 -1.82,-1.22 -3.09,-1.22 -2.4,0 -4.2,1.15 -5.43,3.44 -1.23,2.3 -1.85,5.7 -1.85,10.22 0,4.2 0.57,7.37 1.68,9.53 1.12,2.16 2.77,3.23 4.93,3.23 1.11,0 2.01,-0.19 2.71,-0.56 0.69,-0.37 1.25,-0.92 1.67,-1.67 0.42,-0.74 0.78,-1.78 1.08,-3.13l3.11 0 0 6.88c-1.66,0.4 -3.19,0.68 -4.56,0.87 -1.38,0.18 -2.82,0.27 -4.3,0.27 -3.15,0 -5.72,-0.57 -7.72,-1.71 -1.99,-1.13 -3.46,-2.85 -4.41,-5.14 -0.95,-2.3 -1.42,-5.21 -1.42,-8.72 0,-3.29 0.56,-6.14 1.67,-8.58 1.12,-2.43 2.75,-4.31 4.92,-5.62 2.17,-1.32 4.76,-1.98 7.77,-1.98 1.54,0 2.92,0.09 4.16,0.25 1.25,0.17 2.54,0.44 3.89,0.82zm26.66 -0.71l0 7.23 -3.12 0c-0.5,-1.44 -0.92,-2.41 -1.27,-2.92 -0.35,-0.5 -0.77,-0.91 -1.25,-1.2 -0.49,-0.29 -1.31,-0.44 -2.47,-0.44l-4.96 0 0 10.91 3 0c0.67,0 1.19,-0.09 1.57,-0.29 0.38,-0.19 0.69,-0.5 0.94,-0.94 0.26,-0.44 0.49,-1.12 0.72,-2.05l2.57 0 0 9.23 -2.57 0c-0.22,-0.88 -0.45,-1.55 -0.71,-2.02 -0.26,-0.46 -0.57,-0.79 -0.92,-0.99 -0.36,-0.2 -0.89,-0.29 -1.6,-0.29l-3 0 0 12.13 4.93 0c0.53,0 0.98,-0.03 1.34,-0.1 0.36,-0.07 0.68,-0.19 0.98,-0.35 0.29,-0.17 0.56,-0.4 0.82,-0.68 0.27,-0.29 0.5,-0.6 0.71,-0.93 0.21,-0.33 0.42,-0.78 0.65,-1.32 0.22,-0.55 0.47,-1.3 0.74,-2.25l3.12 0 -0.43 8.29 -22.34 0 0 -1.5c0.57,-0.16 1.01,-0.32 1.33,-0.49 0.33,-0.18 0.57,-0.42 0.72,-0.73 0.16,-0.31 0.26,-0.71 0.31,-1.18 0.05,-0.48 0.07,-1.09 0.07,-1.81l0 -19.6c0,-0.71 -0.02,-1.31 -0.06,-1.79 -0.03,-0.49 -0.13,-0.88 -0.29,-1.19 -0.16,-0.3 -0.4,-0.54 -0.72,-0.74 -0.33,-0.19 -0.78,-0.36 -1.36,-0.51l0 -1.5 22.55 0zm29.54 25.45c0.99,0 1.72,-0.07 2.2,-0.22 0.49,-0.14 0.87,-0.39 1.15,-0.74 0.28,-0.36 0.51,-0.89 0.69,-1.61l2.61 0 -0.52 8.14 -20.82 0 0 -1.5c0.64,-1.46 1.56,-3.04 2.76,-4.76 1.21,-1.71 2.68,-3.58 4.4,-5.61 1.64,-1.92 2.89,-3.51 3.74,-4.76 0.86,-1.24 1.5,-2.41 1.92,-3.52 0.42,-1.1 0.64,-2.25 0.64,-3.43 0,-1.67 -0.37,-2.97 -1.12,-3.92 -0.74,-0.95 -1.75,-1.43 -3.04,-1.43 -1.22,0 -2.22,0.43 -3.02,1.29 -0.79,0.85 -1.37,2.21 -1.74,4.06l-4.09 0 0 -5.36c1.85,-0.74 3.3,-1.26 4.34,-1.56 1.04,-0.29 2.08,-0.52 3.1,-0.67 1.02,-0.15 2.13,-0.23 3.34,-0.23 2.23,0 4.04,0.3 5.45,0.9 1.4,0.6 2.43,1.4 3.06,2.43 0.63,1.02 0.94,2.22 0.94,3.58 0,1.19 -0.22,2.31 -0.67,3.34 -0.45,1.03 -1.22,2.21 -2.32,3.52 -1.09,1.32 -2.95,3.21 -5.55,5.66 -1.17,1.13 -2.26,2.28 -3.27,3.44 -1.02,1.16 -1.77,2.06 -2.25,2.72l0 0.22 8.07 0zm21.36 4.07c0.54,-0.16 0.99,-0.32 1.31,-0.49 0.33,-0.18 0.57,-0.41 0.74,-0.71 0.16,-0.29 0.27,-0.68 0.32,-1.15 0.05,-0.47 0.07,-1.06 0.07,-1.78l0 -3.38 -12.19 0 0 -2.46 13.8 -19.73 5.11 0 0 19.32 0.71 0c0.74,0 1.26,-0.05 1.57,-0.15 0.3,-0.1 0.57,-0.29 0.78,-0.56 0.22,-0.27 0.43,-0.76 0.63,-1.46l2.38 0 -0.27 5.03 -5.79 0 0 3.38c0,0.81 0.04,1.44 0.12,1.92 0.07,0.47 0.2,0.85 0.38,1.13 0.19,0.28 0.43,0.5 0.75,0.64 0.32,0.15 0.72,0.29 1.2,0.43l0 1.5 -11.61 0 0 -1.5zm-5.34 -10.36l7.77 0 0 -5.21c0,-2.18 0.07,-4.48 0.22,-6.89l-0.22 0 -7.77 11.71 0 0.39z"/>
   <polygon class="fil3" points="66.91,43.88 66.91,41.31 75.98,41.31 75.98,43.88 "/>
  </g>
 </g>
</svg>
