<?xml version="1.0" encoding="UTF-8"?>
<!DOCTYPE svg PUBLIC "-//W3C//DTD SVG 1.1//EN" "http://www.w3.org/Graphics/SVG/1.1/DTD/svg11.dtd">
<!-- Creator: CorelDRAW 2017 -->
<svg xmlns="http://www.w3.org/2000/svg" xml:space="preserve" width="114.735mm" height="32.2592mm" version="1.1" style="shape-rendering:geometricPrecision; text-rendering:geometricPrecision; image-rendering:optimizeQuality; fill-rule:evenodd; clip-rule:evenodd"
viewBox="0 0 318.27 89.49"
 xmlns:xlink="http://www.w3.org/1999/xlink">
 <defs>
  <style type="text/css">
   <![CDATA[
    .fil3 {fill:#5B5B5B}
    .fil2 {fill:#5B5B5B;fill-rule:nonzero}
    .fil1 {fill:#877F77;fill-rule:nonzero}
    .fil0 {fill:#AD9D6A;fill-rule:nonzero}
   ]]>
  </style>
 </defs>
 <g id="Слой_x0020_1">
  <metadata id="CorelCorpID_0Corel-Layer"/>
  <g id="_2849228484736">
   <path class="fil0" d="M5.84 30.02l23.42 0 0 11.68 -17.58 0 0 18.06c0,4.96 2.03,9.47 5.31,12.75 3.28,3.28 7.79,5.31 12.75,5.31 4.96,0 9.47,-2.03 12.75,-5.31 3.28,-3.28 5.31,-7.79 5.31,-12.75l0 -2.69 0.04 0c-0,-0.03 -0,-0.07 -0,-0.1 0,-3.2 2.6,-5.8 5.8,-5.8 3.2,0 5.8,2.6 5.8,5.8 0,0.03 -0,0.07 -0,0.1l0.03 0 0 2.69c0,8.18 -3.34,15.62 -8.73,21 -5.39,5.39 -12.82,8.73 -21,8.73 -8.18,0 -15.62,-3.34 -21,-8.73 -5.39,-5.39 -8.73,-12.82 -8.73,-21l0 -29.73 5.84 0z"/>
   <path class="fil1" d="M35.96 57.08c0.01,-0.1 0.02,-0.21 0.02,-0.32l0 -0.12 0 -15.36 14.11 0c5.61,0 10.82,-2.35 14.53,-6.32 3.65,-3.83 5.78,-8.95 5.78,-14.2 0,-5.35 -2.04,-10.55 -5.65,-14.42 -3.71,-3.96 -8.75,-6.35 -14.44,-6.35l-25.3 0c-1.04,0 -1.69,0.52 -1.69,1.69l0 54.94 0 0.12c0,0.11 0.01,0.22 0.02,0.32 0.23,3.29 2.97,5.88 6.32,5.88 3.35,0 6.09,-2.6 6.32,-5.88zm0.02 -26.82l0 -19.23 11.76 0c2.83,0 5.17,0.96 7.04,2.81 1.74,1.78 2.69,4.26 2.69,6.87 0,2.74 -0.96,5.03 -2.69,6.77 -1.87,1.87 -4.22,2.78 -7.04,2.78l-11.76 0z"/>
   <path class="fil2" d="M109.39 61.13c0,1.14 0.04,1.96 0.13,2.45 0.08,0.47 0.22,0.86 0.43,1.14 0.2,0.29 0.49,0.53 0.87,0.72 0.38,0.19 0.96,0.36 1.73,0.5l0 1.72 -14.07 0 0 -1.72c0.65,-0.18 1.16,-0.37 1.54,-0.56 0.38,-0.21 0.65,-0.48 0.83,-0.84 0.19,-0.36 0.3,-0.81 0.36,-1.36 0.05,-0.55 0.08,-1.25 0.08,-2.08l0 -22.55c0,-0.82 -0.03,-1.51 -0.07,-2.06 -0.04,-0.56 -0.15,-1.01 -0.34,-1.37 -0.18,-0.35 -0.46,-0.62 -0.83,-0.85 -0.38,-0.21 -0.89,-0.41 -1.56,-0.59l0 -1.72 15.19 0c4.42,0 7.72,0.79 9.92,2.37 2.2,1.58 3.29,4.01 3.29,7.28 0,2.32 -0.52,4.33 -1.54,6.04 -1.03,1.7 -2.52,3 -4.47,3.88 -1.95,0.87 -4.39,1.32 -7.32,1.32 -1.7,0 -3.08,-0.04 -4.16,-0.11l0 8.37zm0 -11.33l2.25 0c1.74,0 3.12,-0.25 4.16,-0.74 1.03,-0.5 1.79,-1.29 2.29,-2.37 0.5,-1.08 0.75,-2.54 0.75,-4.37 0,-1.81 -0.25,-3.26 -0.75,-4.33 -0.5,-1.07 -1.22,-1.83 -2.19,-2.29 -0.96,-0.46 -2.19,-0.68 -3.69,-0.68 -1.21,0 -2.16,0.02 -2.82,0.05l0 14.72zm35.7 17.86l-13.73 0 0 -1.72c0.65,-0.18 1.16,-0.37 1.54,-0.56 0.38,-0.21 0.65,-0.48 0.83,-0.84 0.19,-0.36 0.3,-0.81 0.36,-1.36 0.05,-0.55 0.08,-1.25 0.08,-2.08l0 -22.55c0,-0.82 -0.03,-1.51 -0.07,-2.06 -0.04,-0.56 -0.15,-1.01 -0.34,-1.37 -0.18,-0.35 -0.46,-0.62 -0.83,-0.85 -0.38,-0.21 -0.89,-0.41 -1.56,-0.59l0 -1.72 15.25 0c2.06,0 3.81,0.14 5.25,0.43 1.44,0.29 2.7,0.73 3.78,1.32 0.91,0.49 1.68,1.11 2.3,1.85 0.62,0.74 1.11,1.61 1.45,2.59 0.35,0.98 0.52,2.13 0.52,3.44 0,1.7 -0.3,3.18 -0.9,4.39 -0.61,1.22 -1.42,2.24 -2.44,3.05 -1.02,0.8 -2.38,1.57 -4.09,2.29l0 0.26c1.29,0.56 2.36,1.3 3.2,2.24 0.85,0.93 1.62,2.12 2.29,3.54l1.64 3.55c0.73,1.59 1.46,2.78 2.19,3.57 0.72,0.79 1.58,1.28 2.58,1.45l0 1.72 -10.07 0c-1.02,-1.39 -2.16,-3.47 -3.43,-6.22l-2.04 -4.47c-0.61,-1.33 -1.13,-2.27 -1.56,-2.83 -0.44,-0.55 -0.89,-0.94 -1.35,-1.15 -0.46,-0.21 -1.18,-0.31 -2.13,-0.31l-1.52 0 0 8.43c0,1.3 0.06,2.22 0.18,2.74 0.13,0.53 0.37,0.95 0.71,1.26 0.35,0.31 0.99,0.59 1.93,0.84l0 1.72zm-2.82 -32.58l0 14.53 2.59 0c1.39,0 2.54,-0.19 3.45,-0.55 0.9,-0.37 1.62,-0.9 2.15,-1.57 0.54,-0.67 0.9,-1.46 1.1,-2.37 0.21,-0.91 0.3,-1.9 0.3,-2.98 0,-2.37 -0.55,-4.15 -1.67,-5.34 -1.12,-1.19 -2.78,-1.78 -4.97,-1.78 -1.5,0 -2.48,0.02 -2.95,0.05zm35.44 26.02c0,0.61 0.02,1.17 0.05,1.7 0.04,0.53 0.1,0.96 0.21,1.29 0.11,0.33 0.26,0.61 0.46,0.83 0.21,0.23 0.48,0.43 0.83,0.59 0.35,0.17 0.78,0.31 1.28,0.44l0 1.72 -13.73 0 0 -1.72c0.65,-0.18 1.16,-0.37 1.54,-0.56 0.38,-0.21 0.65,-0.48 0.83,-0.84 0.19,-0.36 0.3,-0.81 0.36,-1.36 0.05,-0.55 0.08,-1.25 0.08,-2.08l0 -22.57c0,-0.83 -0.03,-1.53 -0.07,-2.06 -0.04,-0.54 -0.15,-0.99 -0.34,-1.35 -0.18,-0.36 -0.46,-0.64 -0.83,-0.85 -0.38,-0.21 -0.89,-0.4 -1.56,-0.58l0 -1.72 13.73 0 0 1.72c-0.71,0.2 -1.24,0.4 -1.58,0.62 -0.34,0.22 -0.6,0.48 -0.77,0.8 -0.18,0.31 -0.3,0.72 -0.37,1.22 -0.07,0.51 -0.11,1.25 -0.11,2.22l0 22.55zm33.79 -28.32l0 7.58 -3.55 0c-0.42,-1.96 -1.08,-3.42 -1.99,-4.35 -0.9,-0.94 -2.09,-1.4 -3.55,-1.4 -2.76,0 -4.84,1.32 -6.25,3.96 -1.42,2.64 -2.12,6.56 -2.12,11.76 0,4.83 0.65,8.48 1.94,10.97 1.29,2.48 3.19,3.72 5.68,3.72 1.28,0 2.31,-0.21 3.12,-0.64 0.79,-0.43 1.44,-1.06 1.92,-1.92 0.48,-0.86 0.89,-2.05 1.24,-3.61l3.58 0 0 7.92c-1.91,0.46 -3.67,0.79 -5.25,1 -1.59,0.21 -3.24,0.31 -4.95,0.31 -3.62,0 -6.59,-0.65 -8.88,-1.96 -2.29,-1.3 -3.98,-3.28 -5.07,-5.92 -1.09,-2.64 -1.63,-5.99 -1.63,-10.03 0,-3.79 0.64,-7.07 1.92,-9.87 1.29,-2.79 3.17,-4.95 5.66,-6.47 2.5,-1.52 5.48,-2.28 8.94,-2.28 1.77,0 3.36,0.1 4.78,0.29 1.44,0.2 2.93,0.51 4.47,0.95zm30.68 -0.81l0 8.32 -3.59 0c-0.57,-1.66 -1.06,-2.78 -1.46,-3.37 -0.4,-0.58 -0.88,-1.04 -1.44,-1.38 -0.56,-0.34 -1.51,-0.51 -2.85,-0.51l-5.7 0 0 12.55 3.45 0c0.77,0 1.37,-0.11 1.8,-0.33 0.44,-0.21 0.79,-0.58 1.08,-1.08 0.29,-0.51 0.56,-1.29 0.83,-2.36l2.95 0 0 10.62 -2.95 0c-0.25,-1.02 -0.52,-1.79 -0.81,-2.32 -0.29,-0.53 -0.65,-0.91 -1.06,-1.13 -0.41,-0.23 -1.03,-0.34 -1.84,-0.34l-3.45 0 0 13.96 5.68 0c0.61,0 1.12,-0.04 1.54,-0.12 0.41,-0.08 0.79,-0.21 1.12,-0.4 0.33,-0.2 0.64,-0.46 0.95,-0.79 0.31,-0.33 0.58,-0.69 0.81,-1.07 0.24,-0.38 0.48,-0.89 0.75,-1.52 0.26,-0.63 0.54,-1.49 0.86,-2.59l3.59 0 -0.5 9.54 -25.71 0 0 -1.72c0.65,-0.18 1.16,-0.37 1.54,-0.56 0.38,-0.21 0.65,-0.48 0.83,-0.84 0.19,-0.36 0.3,-0.81 0.36,-1.36 0.05,-0.55 0.08,-1.25 0.08,-2.08l0 -22.55c0,-0.82 -0.03,-1.51 -0.07,-2.06 -0.04,-0.56 -0.15,-1.01 -0.34,-1.37 -0.18,-0.35 -0.46,-0.62 -0.83,-0.85 -0.38,-0.21 -0.89,-0.41 -1.56,-0.59l0 -1.72 25.95 0zm33.99 29.29c1.13,0 1.98,-0.08 2.54,-0.25 0.56,-0.16 1,-0.45 1.32,-0.86 0.32,-0.41 0.59,-1.03 0.79,-1.85l3.01 0 -0.6 9.36 -23.96 0 0 -1.72c0.73,-1.68 1.79,-3.5 3.18,-5.47 1.39,-1.96 3.08,-4.12 5.06,-6.45 1.88,-2.21 3.32,-4.03 4.3,-5.47 0.99,-1.43 1.72,-2.78 2.21,-4.05 0.48,-1.27 0.73,-2.59 0.73,-3.95 0,-1.92 -0.43,-3.42 -1.29,-4.51 -0.85,-1.1 -2.02,-1.64 -3.5,-1.64 -1.4,0 -2.55,0.5 -3.47,1.48 -0.91,0.98 -1.58,2.54 -2,4.67l-4.7 0 0 -6.17c2.12,-0.86 3.79,-1.45 5,-1.79 1.2,-0.34 2.39,-0.6 3.56,-0.78 1.18,-0.17 2.45,-0.26 3.84,-0.26 2.56,0 4.65,0.35 6.28,1.04 1.62,0.69 2.79,1.62 3.52,2.79 0.72,1.18 1.08,2.55 1.08,4.12 0,1.37 -0.25,2.66 -0.77,3.84 -0.52,1.19 -1.4,2.54 -2.67,4.05 -1.26,1.52 -3.39,3.7 -6.39,6.52 -1.35,1.3 -2.6,2.62 -3.77,3.96 -1.17,1.33 -2.04,2.37 -2.59,3.12l0 0.26 9.28 0zm24.58 4.69c0.62,-0.18 1.13,-0.37 1.51,-0.56 0.38,-0.21 0.65,-0.47 0.85,-0.81 0.19,-0.34 0.31,-0.79 0.37,-1.32 0.05,-0.54 0.08,-1.22 0.08,-2.04l0 -3.89 -14.02 0 0 -2.83 15.88 -22.7 5.88 0 0 22.24 0.81 0c0.85,0 1.45,-0.06 1.8,-0.17 0.35,-0.12 0.65,-0.33 0.9,-0.64 0.25,-0.31 0.49,-0.87 0.72,-1.68l2.74 0 -0.31 5.78 -6.67 0 0 3.89c0,0.93 0.04,1.66 0.13,2.21 0.08,0.54 0.23,0.98 0.44,1.3 0.21,0.32 0.5,0.57 0.87,0.73 0.37,0.17 0.83,0.33 1.38,0.49l0 1.72 -13.36 0 0 -1.72zm-6.14 -11.93l8.94 0 0 -5.99c0,-2.51 0.08,-5.15 0.26,-7.93l-0.26 0 -8.94 13.47 0 0.45z"/>
   <polygon class="fil3" points="76.99,50.49 76.99,47.54 87.42,47.54 87.42,50.49 "/>
  </g>
 </g>
</svg>
