<svg width="37" height="27" viewBox="0 0 37 27" fill="none" xmlns="http://www.w3.org/2000/svg">
<path d="M34.9478 26.8966H2.05222C0.917983 26.8966 0 25.978 0 24.8444V2.15574C0 1.02214 0.917983 0.103516 2.05222 0.103516H34.9478C36.0814 0.103516 37 1.02214 37 2.15574V24.8444C37 25.978 36.0814 26.8966 34.9478 26.8966Z" fill="#CCB375"/>
<path d="M9.56876 17.9653H3.82738C3.47461 17.9653 3.18945 18.2511 3.18945 18.6033C3.18945 18.9554 3.47461 19.2412 3.82738 19.2412H9.56876C9.92154 19.2412 10.2067 18.9554 10.2067 18.6033C10.2067 18.2511 9.92154 17.9653 9.56876 17.9653Z" fill="#7A693C"/>
<path d="M18.4997 18.6033C18.4997 18.2511 18.2145 17.9653 17.8617 17.9653H12.1204C11.7676 17.9653 11.4824 18.2511 11.4824 18.6033C11.4824 18.9554 11.7676 19.2412 12.1204 19.2412H17.8617C18.2145 19.2412 18.4997 18.9554 18.4997 18.6033Z" fill="#7A693C"/>
<path d="M4.46532 21.1553H3.82738C3.47461 21.1553 3.18945 21.4411 3.18945 21.7932C3.18945 22.1453 3.47461 22.4311 3.82738 22.4311H4.46532C4.81809 22.4311 5.10325 22.1453 5.10325 21.7932C5.10325 21.4411 4.81809 21.1553 4.46532 21.1553Z" fill="#7A693C"/>
<path d="M8.2927 21.1553H7.01684C6.66406 21.1553 6.37891 21.4411 6.37891 21.7932C6.37891 22.1453 6.66406 22.4311 7.01684 22.4311H8.2927C8.64548 22.4311 8.93063 22.1453 8.93063 21.7932C8.93063 21.4411 8.64548 21.1553 8.2927 21.1553Z" fill="#7A693C"/>
<path d="M11.4829 21.1553H10.845C10.4922 21.1553 10.207 21.4411 10.207 21.7932C10.207 22.1453 10.4922 22.4311 10.845 22.4311H11.4829C11.8357 22.4311 12.1208 22.1453 12.1208 21.7932C12.1208 21.4411 11.8357 21.1553 11.4829 21.1553Z" fill="#7A693C"/>
<path d="M15.3103 21.1553H14.0344C13.6816 21.1553 13.3965 21.4411 13.3965 21.7932C13.3965 22.1453 13.6816 22.4311 14.0344 22.4311H15.3103C15.6631 22.4311 15.9482 22.1453 15.9482 21.7932C15.9482 21.4411 15.6631 21.1553 15.3103 21.1553Z" fill="#7A693C"/>
<path d="M17.4096 21.3401C17.2941 21.4613 17.2246 21.6272 17.2246 21.793C17.2246 21.9589 17.2941 22.1248 17.4096 22.246C17.5302 22.3608 17.6967 22.431 17.8625 22.431C18.0284 22.431 18.1936 22.3608 18.3155 22.246C18.4303 22.1248 18.5005 21.9589 18.5005 21.793C18.5005 21.6272 18.4303 21.4613 18.3155 21.3401C18.0731 21.1041 17.638 21.1041 17.4096 21.3401Z" fill="#7A693C"/>
<path d="M29.3446 19.8793C29.3446 21.9934 27.6311 23.7069 25.517 23.7069C23.4029 23.7069 21.6895 21.9934 21.6895 19.8793C21.6895 17.7652 23.4029 16.0518 25.517 16.0518C27.6311 16.0518 29.3446 17.7652 29.3446 19.8793Z" fill="#E74C3D"/>
<path d="M33.8095 19.8793C33.8095 21.9934 32.096 23.7069 29.9819 23.7069C27.8678 23.7069 26.1543 21.9934 26.1543 19.8793C26.1543 17.7652 27.8678 16.0518 29.9819 16.0518C32.096 16.0518 33.8095 17.7652 33.8095 19.8793Z" fill="#F0C41B"/>
<path d="M13.2344 12.8622H4.62873C4.18728 12.8622 3.82812 12.5037 3.82812 12.0616V6.00763C3.82812 5.56555 4.18728 5.20703 4.62873 5.20703H13.2344C13.6765 5.20703 14.035 5.56555 14.035 6.00763V12.0616C14.035 12.5037 13.6765 12.8622 13.2344 12.8622Z" fill="#F0C41B"/>
<path d="M13.2337 13.4999H4.62799C3.83504 13.4999 3.18945 12.8543 3.18945 12.0613V6.00738C3.18945 5.21443 3.83504 4.56885 4.62799 4.56885H13.2337C14.0266 4.56885 14.6722 5.21443 14.6722 6.00738V12.0613C14.6722 12.8543 14.0266 13.4999 13.2337 13.4999ZM4.62799 5.84471C4.5374 5.84471 4.46532 5.91743 4.46532 6.00738V12.0613C4.46532 12.1513 4.5374 12.224 4.62799 12.224H13.2337C13.3236 12.224 13.3963 12.1513 13.3963 12.0613V6.00738C13.3963 5.91743 13.3236 5.84471 13.2337 5.84471H4.62799Z" fill="#F3D55C"/>
<path d="M14.0336 6.00763C14.0336 5.56555 13.6751 5.20703 13.233 5.20703H10.206H8.4549C8.01218 5.20703 7.6543 5.56555 7.6543 6.00763V7.75876V12.0616C7.6543 12.5037 8.01218 12.8622 8.4549 12.8622H9.40542C9.8475 12.8622 10.206 12.5037 10.206 12.0616V8.55936C10.206 8.11727 10.5645 7.75876 11.0066 7.75876H13.233C13.6751 7.75876 14.0336 7.40024 14.0336 6.95815V6.00763Z" fill="#F0C41B"/>
<path d="M9.40663 13.4999H8.45611C7.66316 13.4999 7.01758 12.8543 7.01758 12.0613V6.00738C7.01758 5.21443 7.66316 4.56885 8.45611 4.56885H13.2342C14.0272 4.56885 14.6728 5.21443 14.6728 6.00738V6.9579C14.6728 7.75085 14.0272 8.39643 13.2342 8.39643H11.0078C10.9173 8.39643 10.8452 8.46916 10.8452 8.55911V12.0613C10.8452 12.8543 10.1996 13.4999 9.40663 13.4999ZM8.45611 5.84471C8.36553 5.84471 8.29344 5.91743 8.29344 6.00738V12.0613C8.29344 12.1513 8.36553 12.224 8.45611 12.224H9.40663C9.49658 12.224 9.5693 12.1513 9.5693 12.0613V8.55911C9.5693 7.76616 10.2149 7.12057 11.0078 7.12057H13.2342C13.3242 7.12057 13.3969 7.04785 13.3969 6.9579V6.00738C13.3969 5.91743 13.3242 5.84471 13.2342 5.84471H8.45611Z" fill="#F3D55C"/>
<path d="M14.0339 10.9482H10.2063C9.85351 10.9482 9.56836 10.6624 9.56836 10.3103C9.56836 9.95816 9.85351 9.67236 10.2063 9.67236H14.0339C14.3867 9.67236 14.6718 9.95816 14.6718 10.3103C14.6718 10.6624 14.3867 10.9482 14.0339 10.9482Z" fill="#F3D55C"/>
<path d="M7.65497 8.39647H3.82738C3.47461 8.39647 3.18945 8.11067 3.18945 7.75854C3.18945 7.4064 3.47461 7.12061 3.82738 7.12061H7.65497C8.00774 7.12061 8.2929 7.4064 8.2929 7.75854C8.2929 8.11067 8.00774 8.39647 7.65497 8.39647Z" fill="#F3D55C"/>
<path d="M7.65497 10.9482H3.82738C3.47461 10.9482 3.18945 10.6624 3.18945 10.3103C3.18945 9.95816 3.47461 9.67236 3.82738 9.67236H7.65497C8.00774 9.67236 8.2929 9.95816 8.2929 10.3103C8.2929 10.6624 8.00774 10.9482 7.65497 10.9482Z" fill="#F3D55C"/>
</svg>
