<svg width="37" height="29" viewBox="0 0 37 29" fill="none" xmlns="http://www.w3.org/2000/svg">
<path d="M13.9363 16.5624C11.5207 15.2065 9.90988 12.814 9.90988 10.0803C9.90988 7.34659 11.5207 4.95409 13.9363 3.59814H7.2505C7.26041 3.69538 7.26702 3.7932 7.26702 3.89279C7.26702 5.68304 5.63968 7.13386 3.63309 7.13386C3.52143 7.13386 3.41175 7.12797 3.30273 7.11913V13.0414C3.41175 13.0326 3.52143 13.0267 3.63309 13.0267C5.63968 13.0267 7.26702 14.4775 7.26702 16.2678C7.26702 16.3674 7.26041 16.4652 7.2505 16.5624H13.9363Z" fill="#E9E8D3"/>
<path d="M33.3657 7.13386C31.3584 7.13386 29.7318 5.68304 29.7318 3.89279C29.7318 3.7932 29.7384 3.69538 29.7483 3.59814H23.0625C25.4774 4.95409 27.0889 7.34659 27.0889 10.0803C27.0889 12.814 25.4774 15.2065 23.0625 16.5624H29.7483C29.7384 16.4652 29.7318 16.3674 29.7318 16.2678C29.7318 14.4775 31.3584 13.0267 33.3657 13.0267C33.4773 13.0267 33.587 13.0326 33.696 13.0414V7.11913C33.587 7.12797 33.4773 7.13386 33.3657 7.13386Z" fill="#E9E8D3"/>
<path d="M3.63421 5.36635C2.72308 5.36635 1.98242 4.70576 1.98242 3.89314C1.98242 3.08051 2.72308 2.41992 3.63421 2.41992C4.54533 2.41992 5.28599 3.08051 5.28599 3.89314C5.28599 4.70576 4.54533 5.36635 3.63421 5.36635Z" fill="#E9E8D3"/>
<path d="M33.3666 5.36635C32.4555 5.36635 31.7148 4.70576 31.7148 3.89314C31.7148 3.08051 32.4555 2.41992 33.3666 2.41992C34.2778 2.41992 35.0184 3.08051 35.0184 3.89314C35.0184 4.70576 34.2778 5.36635 33.3666 5.36635Z" fill="#E9E8D3"/>
<path d="M3.63421 17.7414C2.72308 17.7414 1.98242 17.0808 1.98242 16.2681C1.98242 15.4555 2.72308 14.7949 3.63421 14.7949C4.54533 14.7949 5.28599 15.4555 5.28599 16.2681C5.28599 17.0808 4.54533 17.7414 3.63421 17.7414Z" fill="#E9E8D3"/>
<path d="M33.3666 17.7414C32.4555 17.7414 31.7148 17.0808 31.7148 16.2681C31.7148 15.4555 32.4555 14.7949 33.3666 14.7949C34.2778 14.7949 35.0184 15.4555 35.0184 16.2681C35.0184 17.0808 34.2778 17.7414 33.3666 17.7414Z" fill="#E9E8D3"/>
<path d="M14.5352 3.28906C11.7886 4.56722 9.91016 7.12649 9.91016 10.0812C9.91016 13.0353 11.7886 15.5951 14.5352 16.8727V3.28906Z" fill="#6E8C61"/>
<path d="M22.4648 3.28906V16.8727C25.2114 15.5951 27.0898 13.0353 27.0898 10.0812C27.0898 7.1259 25.2114 4.56722 22.4648 3.28906Z" fill="#6E8C61"/>
<path d="M14.5357 26.5806H0V28.3484H14.5357V26.5806Z" fill="#607B53"/>
<path d="M37.0006 26.5806H22.4648V28.3484H37.0006V26.5806Z" fill="#607B53"/>
<path d="M14.5357 24.8125H0V26.5804H14.5357V24.8125Z" fill="#546949"/>
<path d="M37.0006 24.8125H22.4648V26.5804H37.0006V24.8125Z" fill="#546949"/>
<path d="M14.5357 23.0449H0V24.8128H14.5357V23.0449Z" fill="#607B53"/>
<path d="M37.0006 23.0449H22.4648V24.8128H37.0006V23.0449Z" fill="#607B53"/>
<path d="M14.5357 21.2769H0V23.0447H14.5357V21.2769Z" fill="#546949"/>
<path d="M37.0006 21.2769H22.4648V23.0447H37.0006V21.2769Z" fill="#546949"/>
<path d="M14.5357 19.5088H0V21.2766H14.5357V19.5088Z" fill="#607B53"/>
<path d="M37.0006 19.5088H22.4648V21.2766H37.0006V19.5088Z" fill="#607B53"/>
<path d="M22.4637 0.651855H14.5352V19.509H22.4637V0.651855Z" fill="#D1D4D2"/>
<path d="M22.4637 19.5088H14.5352V28.3481H22.4637V19.5088Z" fill="#A5A5A4"/>
<path d="M37 0.651855H0V19.509H37V0.651855Z" fill="#6E8C61"/>
<path d="M13.9363 16.5624C11.5207 15.2065 9.90988 12.814 9.90988 10.0803C9.90988 7.34659 11.5207 4.95409 13.9363 3.59814H7.2505C7.26041 3.69538 7.26702 3.7932 7.26702 3.89279C7.26702 5.68304 5.63968 7.13386 3.63309 7.13386C3.52143 7.13386 3.41175 7.12797 3.30273 7.11913V13.0414C3.41175 13.0326 3.52143 13.0267 3.63309 13.0267C5.63968 13.0267 7.26702 14.4775 7.26702 16.2678C7.26702 16.3674 7.26041 16.4652 7.2505 16.5624H13.9363Z" fill="#E9E8D3"/>
<path d="M33.3657 7.13386C31.3584 7.13386 29.7318 5.68304 29.7318 3.89279C29.7318 3.7932 29.7384 3.69538 29.7483 3.59814H23.0625C25.4774 4.95409 27.0889 7.34659 27.0889 10.0803C27.0889 12.814 25.4774 15.2065 23.0625 16.5624H29.7483C29.7384 16.4652 29.7318 16.3674 29.7318 16.2678C29.7318 14.4775 31.3584 13.0267 33.3657 13.0267C33.4773 13.0267 33.587 13.0326 33.696 13.0414V7.11913C33.587 7.12797 33.4773 7.13386 33.3657 7.13386Z" fill="#E9E8D3"/>
<path d="M3.63421 5.36635C2.72308 5.36635 1.98242 4.70576 1.98242 3.89314C1.98242 3.08051 2.72308 2.41992 3.63421 2.41992C4.54533 2.41992 5.28599 3.08051 5.28599 3.89314C5.28599 4.70576 4.54533 5.36635 3.63421 5.36635Z" fill="#E9E8D3"/>
<path d="M33.3666 5.36635C32.4555 5.36635 31.7148 4.70576 31.7148 3.89314C31.7148 3.08051 32.4555 2.41992 33.3666 2.41992C34.2778 2.41992 35.0184 3.08051 35.0184 3.89314C35.0184 4.70576 34.2778 5.36635 33.3666 5.36635Z" fill="#E9E8D3"/>
<path d="M3.63421 17.7414C2.72308 17.7414 1.98242 17.0808 1.98242 16.2681C1.98242 15.4555 2.72308 14.7949 3.63421 14.7949C4.54533 14.7949 5.28599 15.4555 5.28599 16.2681C5.28599 17.0808 4.54533 17.7414 3.63421 17.7414Z" fill="#E9E8D3"/>
<path d="M33.3666 17.7414C32.4555 17.7414 31.7148 17.0808 31.7148 16.2681C31.7148 15.4555 32.4555 14.7949 33.3666 14.7949C34.2778 14.7949 35.0184 15.4555 35.0184 16.2681C35.0184 17.0808 34.2778 17.7414 33.3666 17.7414Z" fill="#E9E8D3"/>
<path d="M14.5352 3.28906C11.7886 4.56722 9.91016 7.12649 9.91016 10.0812C9.91016 13.0353 11.7886 15.5951 14.5352 16.8727V3.28906Z" fill="#6E8C61"/>
<path d="M22.4648 3.28906V16.8727C25.2114 15.5951 27.0898 13.0353 27.0898 10.0812C27.0898 7.1259 25.2114 4.56722 22.4648 3.28906Z" fill="#6E8C61"/>
<path d="M14.5357 26.5806H0V28.3484H14.5357V26.5806Z" fill="#607B53"/>
<path d="M37.0006 26.5806H22.4648V28.3484H37.0006V26.5806Z" fill="#607B53"/>
<path d="M14.5357 24.8125H0V26.5804H14.5357V24.8125Z" fill="#546949"/>
<path d="M37.0006 24.8125H22.4648V26.5804H37.0006V24.8125Z" fill="#546949"/>
<path d="M14.5357 23.0449H0V24.8128H14.5357V23.0449Z" fill="#607B53"/>
<path d="M37.0006 23.0449H22.4648V24.8128H37.0006V23.0449Z" fill="#607B53"/>
<path d="M14.5357 21.2769H0V23.0447H14.5357V21.2769Z" fill="#546949"/>
<path d="M37.0006 21.2769H22.4648V23.0447H37.0006V21.2769Z" fill="#546949"/>
<path d="M14.5357 19.5088H0V21.2766H14.5357V19.5088Z" fill="#607B53"/>
<path d="M37.0006 19.5088H22.4648V21.2766H37.0006V19.5088Z" fill="#607B53"/>
<path d="M22.4637 0.651855H14.5352V19.509H22.4637V0.651855Z" fill="#D1D4D2"/>
<path d="M22.4637 19.5088H14.5352V28.3481H22.4637V19.5088Z" fill="#A5A5A4"/>
</svg>
